<?xml version="1.0" encoding="UTF-8"?>
<svg xmlns="http://www.w3.org/2000/svg" width="70.31" height="66.81" viewBox="0 0 70.31 66.81">
  <g>
    <g>
      <path d="M3.64,7.27c2.01,0,3.64-1.63,3.64-3.64S5.64,0,3.64,0,0,1.63,0,3.64s1.63,3.64,3.64,3.64Z" fill="#231f20"/>
      <path d="M66.67,37.04c2.01,0,3.64-1.63,3.64-3.64s-1.63-3.64-3.64-3.64-3.64,1.63-3.64,3.64,1.63,3.64,3.64,3.64Z" fill="#231f20"/>
      <path d="M66.67,40.04c-3.66,0-6.64-2.98-6.64-6.64s2.98-6.64,6.64-6.64h0V4.41H10.22c-.36,3.04-2.77,5.45-5.81,5.81v46.37c3.04.36,5.45,2.77,5.81,5.81h56.45v-22.36h0ZM50.59,48.45h-29.86v-30.08h9.16v22.64h20.7v7.44Z" fill="#231f20"/>
      <circle cx="3.64" cy="63.17" r="3.64" fill="#231f20"/>
    </g>
  </g>
</svg>