<?xml version="1.0" encoding="UTF-8"?>
<svg xmlns="http://www.w3.org/2000/svg" width="399.71" height="163.81" viewBox="0 0 399.71 163.81">
  <g>
    <g>
      <g>
        <path d="M3.03,84.84l-.02-3.5,8.31-.04-.11-22.42-8.31.04-.02-3.5,20.69-.1.02,3.5-8.27.04.11,22.42,8.27-.04.02,3.5-20.69.1Z" fill="#fff"/>
        <path d="M62.16,77.92l-.11-22.79,3.78-.02.14,29.42-3.6.02-14.69-24.22.12,24.29-3.78.02-.14-29.42,4.76-.02,13.51,22.73Z" fill="#fff"/>
        <path d="M103.76,77.73l-.11-22.79,3.78-.02.14,29.42-3.6.02-14.69-24.22.12,24.29-3.78.02-.14-29.42,4.76-.02,13.51,22.73Z" fill="#fff"/>
        <path d="M138.21,84.75c-7.1.03-12.27-6.15-12.31-15.21-.04-9.06,5.07-15.3,12.16-15.33,7.1-.03,12.27,6.15,12.31,15.21.04,9.06-5.07,15.3-12.16,15.33ZM138.08,57.76c-4.86.02-8.01,4.57-7.98,11.76.03,7.19,3.23,11.71,8.09,11.68,4.86-.02,8.01-4.57,7.98-11.76-.03-7.19-3.23-11.71-8.09-11.68Z" fill="#fff"/>
        <path d="M177.38,84.01l-9.99-29.38,4.39-.02,8.06,24.57h.19s7.73-24.65,7.73-24.65l4.2-.02-9.71,29.47-4.86.02Z" fill="#fff"/>
        <path d="M226.6,75.18l-10.74.05-2.72,8.61-4.02.02,9.67-29.47,4.95-.02,9.95,29.38-4.25.02-2.85-8.58ZM216.91,71.96l8.64-.04-4.31-13.06h-.18s-4.14,13.1-4.14,13.1Z" fill="#fff"/>
        <path d="M260.91,83.61l-.12-25.87-10.42.05-.02-3.55,25.03-.12.02,3.55-10.55.05.12,25.87-4.06.02Z" fill="#fff"/>
        <path d="M294.24,83.45l-.02-3.5,8.31-.04-.11-22.42-8.31.04-.02-3.5,20.69-.1.02,3.5-8.27.04.11,22.42,8.27-.04.02,3.5-20.69.1Z" fill="#fff"/>
        <path d="M346.21,83.76c-7.1.03-12.27-6.15-12.31-15.21-.04-9.06,5.07-15.3,12.16-15.33,7.1-.03,12.27,6.15,12.31,15.21.04,9.06-5.07,15.3-12.16,15.33ZM346.09,56.77c-4.86.02-8.01,4.57-7.98,11.76.03,7.19,3.23,11.71,8.09,11.68,4.86-.02,8.01-4.57,7.98-11.76-.03-7.19-3.23-11.71-8.09-11.68Z" fill="#fff"/>
        <path d="M394.97,76.34l-.11-22.79,3.78-.02.14,29.42-3.6.02-14.69-24.22.12,24.29-3.78.02-.14-29.42,4.76-.02,13.51,22.73Z" fill="#fff"/>
      </g>
      <g>
        <path d="M11.7,1.8l.14,28.8,18.6-.09.04,9-28.8.14L1.5,1.85l10.2-.05Z" fill="#fff"/>
        <path d="M60.92,40.09c-9.72.05-17.02-7.9-17.08-19.54-.06-11.64,7.17-19.66,16.89-19.7,9.72-.05,17.02,7.9,17.07,19.54s-7.17,19.66-16.89,19.7ZM60.77,9.84c-4.08.02-6.64,4.23-6.61,10.65.03,6.42,2.63,10.61,6.71,10.59,4.08-.02,6.64-4.23,6.61-10.65-.03-6.42-2.63-10.61-6.71-10.59Z" fill="#fff"/>
        <path d="M90.91,23.98l-.11-22.56,10.14-.05.1,20.88c.03,5.76,1.01,9.06,5.63,9.03s5.56-3.33,5.54-9.09l-.1-20.88,10.2-.05.11,22.56c.05,11.04-6.59,15.99-15.71,16.04-9.12.04-15.75-4.84-15.8-15.89Z" fill="#fff"/>
        <path d="M138.1,39l-.04-8.82,9.42-.04-.1-20.16-9.42.04-.04-8.82,29.04-.14.04,8.82-9.42.05.1,20.16,9.42-.05.04,8.82-29.04.14Z" fill="#fff"/>
        <path d="M187.25,25.68c2.78,3.71,6.87,5.55,11.25,5.53,3.66-.02,5.81-1.17,5.8-3.27s-1.81-2.45-3.43-2.8l-7.75-1.7c-5.65-1.23-9.92-4.27-9.95-10.87-.04-7.38,5.64-12.33,14.4-12.37,6.72-.03,11.71,2.7,15.34,6.89l-6.09,6.39c-2-2.87-4.52-5.08-9.2-5.06-2.82.01-4.92,1.28-4.91,3.2,0,1.74,1.39,2.27,2.89,2.63l7.51,1.7c7.51,1.7,10.83,5.17,10.86,11.35.04,7.86-6.9,12.09-15.42,12.14-7.5.04-12.85-2.34-16.96-6.52l5.67-7.23Z" fill="#fff"/>
        <path d="M229.81,38.56l-.04-8.82,9.42-.04-.1-20.16-9.42.04-.04-8.82,29.04-.14.04,8.82-9.42.05.1,20.16,9.42-.05.04,8.82-29.04.14Z" fill="#fff"/>
        <path d="M295.49,30.93l-11.22.05-2,7.33-9.9.05L283.76.5l12.48-.06,11.76,37.75-10.44.05-2.08-7.31ZM286.39,23.35l6.96-.03-3.42-11.99h-.24s-3.3,12.02-3.3,12.02Z" fill="#fff"/>
        <path d="M342.44,22.3l-.11-22.08,9.24-.04.18,37.81-9.54.05-12.78-25.8.12,25.86-9.24.04-.18-37.81,12.12-.06,10.19,22.04Z" fill="#fff"/>
        <path d="M387.2,30.49l-11.22.05-2,7.33-9.9.05L375.47.06l12.48-.06,11.76,37.75-10.44.05-2.08-7.31ZM378.1,22.91l6.96-.03-3.42-11.99h-.24s-3.3,12.02-3.3,12.02Z" fill="#fff"/>
      </g>
    </g>
    <g>
      <polygon points="51.09 137.51 30.39 137.51 30.39 114.87 21.23 114.87 21.23 144.95 51.09 144.95 51.09 137.51" fill="#fff"/>
      <path d="M178.23,129.58c2.84-.54,4.19-2.57,4.19-6.5s-.99-5.86-3.43-7.13c-1.58-.77-3.47-1.08-6.95-1.08h-27.15v30.08h28.42c3.47,0,5.46-.32,6.85-1.04,2.39-1.26,3.47-3.65,3.47-7.44,0-4.37-1.35-6.13-5.41-6.9ZM153.83,121.55h15.16c1.76,0,2.21.05,2.8.23.99.36,1.58,1.26,1.58,2.48,0,1.04-.45,1.85-1.17,2.26-.59.27-1.22.36-2.98.36h-15.38v-5.32ZM173,138.05c-.59.18-.95.22-2.8.22h-16.37v-5.5h16.15c2.03,0,2.39.04,2.93.22.99.36,1.53,1.26,1.53,2.57s-.54,2.17-1.44,2.48Z" fill="#fff"/>
      <path d="M239.06,126.64c-1.53-.09-5.59-.23-6.4-.23h-8.53c-2.98-.05-3.16-.09-3.7-.22-1.31-.32-1.94-1.13-1.94-2.39,0-1.71.81-2.35,3.25-2.53,1.44-.09,5.37-.18,8.3-.18,5.91,0,6.81.36,6.81,2.98h8.93c0-4.51-.68-6.36-2.75-7.76-2.16-1.4-4.6-1.67-15.16-1.67-6.58,0-10.1.22-12.54.85-4.33,1.04-5.86,3.34-5.86,8.75,0,4.1.99,6.5,3.16,7.62,1.94.99,4.24,1.31,9.79,1.31h8.3q4.74.05,5.73.36c.95.32,1.53,1.22,1.53,2.44,0,2.48-1.26,2.8-11.86,2.8-2.89,0-5.46-.18-6.13-.45-1.08-.41-1.31-.9-1.4-2.98h-8.98c-.05.63-.05,1.22-.05,1.49,0,3.56.95,5.86,2.8,6.77,2.66,1.35,4.96,1.58,15.38,1.58,6.54,0,11-.27,13.26-.77,4.42-.95,6.04-3.38,6.04-8.93,0-6.05-2.25-8.57-7.98-8.84Z" fill="#fff"/>
      <path d="M91,139.59h19.4l2.98,5.37h10.01l-16.46-30.08h-12.27l-16.92,30.08h10.37l2.89-5.37ZM100.7,121.32l6.5,12h-12.9l6.4-12Z" fill="#fff"/>
      <path d="M264.38,129.91c0-1.81-1.19-3.33-2.82-3.87v-27.18h-61.41c-.55-1.68-2.14-2.86-3.93-2.86s-3.38,1.18-3.93,2.86H8.06c-.55-1.68-2.14-2.86-3.93-2.86-2.28,0-4.13,1.85-4.13,4.14,0,1.79,1.18,3.38,2.86,3.93v51.68c-1.68.55-2.86,2.14-2.86,3.93,0,2.28,1.85,4.14,4.13,4.14,1.79,0,3.38-1.18,3.93-2.85h120.44c.55,1.67,2.14,2.85,3.93,2.85s3.38-1.18,3.93-2.85h125.21v-27.18c1.63-.54,2.82-2.06,2.82-3.87ZM66.91,158.41H8.07c-.41-1.26-1.4-2.25-2.65-2.66v-51.68c1.25-.41,2.24-1.4,2.65-2.65h58.85v56.99ZM130.96,155.83c-1.18.45-2.08,1.39-2.46,2.58h-58.69v-56.99h61.15v54.41ZM194.95,158.41h-58.59c-.39-1.2-1.3-2.15-2.5-2.59v-54.4h58.44c.41,1.25,1.4,2.24,2.65,2.65v54.34ZM197.58,158.41v-54.37c1.22-.42,2.18-1.4,2.58-2.62h58.85v24.62c-1.63.54-2.82,2.06-2.82,3.87s1.19,3.33,2.82,3.87v24.62h-61.43Z" fill="#fff"/>
    </g>
  </g>
</svg>