<?xml version="1.0" encoding="UTF-8"?>
<svg id="Layer_2" data-name="Layer 2" xmlns="http://www.w3.org/2000/svg" width="558.08" height="174.97" viewBox="0 0 558.08 174.97">
  <defs>
    <style>
      .cls-1 {
        fill: #fff;
      }
    </style>
  </defs>
  <g id="Layer_1-2" data-name="Layer 1">
    <path class="cls-1" d="M2.9 6.67a2.13 2.13 0 0 1-.43-4.21L14.03.06a2.13 2.13 0 1 1 .86 4.17L3.33 6.63q-.2.04-.43.04m-.17 9.46a2.13 2.13 0 0 1-.47-4.2L53.3.45a2.13 2.13 0 0 1 .94 4.15L3.2 16.08q-.24.05-.47.05m-.18 9.64a2.12 2.12 0 0 1-.5-4.2L89.93.25a2.13 2.13 0 1 1 1 4.14L3.06 25.7q-.24.06-.5.06m-.18 9.81a2.12 2.12 0 0 1-.54-4.19L106.16 4.24a2.13 2.13 0 0 1 1.07 4.12L2.91 35.51q-.27.07-.54.07m-.19 10a2.13 2.13 0 0 1-.56-4.18l105.03-29.18a2.12 2.12 0 1 1 1.14 4.1L2.76 45.5q-.3.09-.58.08m6 8.35a2.13 2.13 0 0 1-.6-4.18l99.78-29.45a2.13 2.13 0 0 1 1.2 4.09L8.8 53.83q-.3.08-.6.09m1.2 9.78a2.13 2.13 0 0 1-.64-4.16L110 27.91a2.13 2.13 0 1 1 1.27 4.06L10.04 63.61q-.3.1-.63.1m5.15 8.62a2.13 2.13 0 0 1-.67-4.16l94.89-31.29a2.13 2.13 0 1 1 1.33 4.04l-94.88 31.3q-.34.1-.67.1m4.32 8.9a2.13 2.13 0 0 1-.7-4.13l80.58-27.97a2.12 2.12 0 1 1 1.4 4.02L19.57 81.1q-.34.13-.7.12m.56 10.29a2.13 2.13 0 0 1-.73-4.13l74.46-27.12a2.13 2.13 0 0 1 1.46 4L20.16 91.38q-.36.13-.73.13m-4.34 12.3a2.13 2.13 0 0 1-.76-4.12L90.6 70.6a2.13 2.13 0 1 1 1.52 3.98l-76.27 29.08q-.37.14-.76.14m-3.67 12.34a2.12 2.12 0 0 1-.79-4.1L88.3 81.1c1.09-.43 2.33.1 2.77 1.2a2.13 2.13 0 0 1-1.2 2.75L12.22 116q-.4.16-.8.16m135.92 1.21a2.13 2.13 0 0 1-.95-4.03l11.81-5.9a2.13 2.13 0 0 1 1.9 3.82l-11.81 5.9q-.46.21-.95.21m9.81 4.76a2.12 2.12 0 0 1-.97-4.02l4.65-2.4a2.13 2.13 0 1 1 1.95 3.79l-4.65 2.39q-.47.24-.98.24m-144.03 4.42a2.13 2.13 0 0 1-.82-4.09l89-36.96a2.13 2.13 0 1 1 1.64 3.93l-89.02 36.95q-.4.16-.8.16m17.21 3.8c-.82 0-1.6-.48-1.95-1.29a2.1 2.1 0 0 1 1.11-2.8l94.92-41a2.13 2.13 0 1 1 1.69 3.9l-94.92 41.01q-.42.18-.85.18M6.28 140.73a2.13 2.13 0 0 1-.85-4.08l16.76-7.24a2.13 2.13 0 1 1 1.7 3.9l-16.77 7.24q-.42.18-.84.18m72.22.18a2.13 2.13 0 0 1-.93-4.05l75.35-36.32a2.13 2.13 0 0 1 1.84 3.83L79.42 140.7q-.46.2-.92.2m-47.4.2a2.13 2.13 0 0 1-.87-4.07l116.75-52.4a2.13 2.13 0 1 1 1.74 3.89L31.97 140.9q-.43.18-.87.18m58.6 5a2.13 2.13 0 0 1-.95-4.02l42.75-21.32a2.13 2.13 0 0 1 1.9 3.81l-42.75 21.32q-.46.22-.95.22m-45.58.19a2.13 2.13 0 0 1-.9-4.06l111.15-51.74a2.13 2.13 0 1 1 1.8 3.86L45.02 146.1q-.45.2-.9.2m123 .12a2.12 2.12 0 0 1-1.05-3.98l.38-.22a2.13 2.13 0 1 1 2.1 3.71l-.4.22a2 2 0 0 1-1.03.27m-108.38 4.02a2.13 2.13 0 0 1-.93-4.05l11.47-5.52a2.13 2.13 0 0 1 1.85 3.84l-11.47 5.52q-.45.21-.92.21m39.58 1.99a2.12 2.12 0 0 1-.98-4.02l3.22-1.66q.15-.08.32-.13a3 3 0 0 1 .66-.34q.14-.1.32-.2l43-22.14a2.12 2.12 0 1 1 1.94 3.78l-43 22.14-.2.1-.17.1-.3.15q-.14.08-.32.14l-.3.19-3.22 1.65q-.48.24-.97.24m55.18 1.68a2.13 2.13 0 0 1-1.05-3.99l6.57-3.7a2.13 2.13 0 1 1 2.09 3.7l-6.57 3.71q-.5.28-1.04.28m-46.93 4.71a2.13 2.13 0 0 1-1-4l48.72-25.9a2.13 2.13 0 0 1 2 3.75l-48.72 25.9q-.48.25-1 .25m55 .96a2.13 2.13 0 0 1-1.07-3.97l6.31-3.67a2.13 2.13 0 0 1 2.14 3.68l-6.32 3.67q-.51.3-1.07.29m-22.71 2.59a2.13 2.13 0 0 1-1.05-3.99l9.23-5.2a2.13 2.13 0 1 1 2.09 3.71l-9.23 5.2a2 2 0 0 1-1.04.28m30.76 3a2.13 2.13 0 0 1-1.1-3.96l9.88-5.89a2.13 2.13 0 1 1 2.18 3.66l-9.87 5.88q-.52.3-1.09.3m-56.2.5a2.13 2.13 0 0 1-1.02-3.99l28.27-15.48q.33-.18.69-.24.23-.27.57-.45l27.56-15.1a2.13 2.13 0 0 1 2.04 3.73l-27.56 15.1q-.33.18-.69.23-.24.27-.57.46l-28.26 15.49q-.5.26-1.02.26m65.2 4.39a2.13 2.13 0 0 1-1.1-3.94l2.94-1.8a2.13 2.13 0 0 1 2.22 3.62l-2.95 1.8q-.53.32-1.1.32m-7.66 4.69a2.13 2.13 0 0 1-1.12-3.95l1.3-.79c.99-.6 2.3-.3 2.92.7.61 1.01.3 2.32-.7 2.93l-1.3.8q-.52.3-1.1.3M229.02 50.3V10.35h15.83v38.74c0 7.87 1.32 12.61 8.48 12.61s8.47-4.74 8.47-12.6V10.34h15.85V50.3c0 16.55-9.49 24.72-24.32 24.72s-24.31-8.17-24.31-24.72m74.15 23.61h-15.94V10.35h15.94Zm29.96-64.67c15.13 0 23 8.78 23 21.5v1.6h-14.12v-1c0-6.06-2.83-10-8.98-10-4.14 0-6.66 2.43-6.66 6.06 0 2.93 1.71 4.74 5.05 5.85l9.38 3.13c10.29 3.43 16.34 8.47 16.34 18.66 0 13.02-9.58 19.98-22.4 19.98-15.33 0-24-8.48-24-21.39v-1.41h14.22v.9c0 6.06 3.33 9.8 9.68 9.8 4.34 0 7.07-2.22 7.07-5.86 0-3.33-1.82-4.94-5.65-6.15l-9.69-3.03c-8.57-2.72-15.03-7.57-15.03-18.66 0-11.8 8.47-19.98 21.79-19.98m47.84 64.67h-15.94V10.35h15.94Zm27.74-25.22h11.1l-5.25-20.08h-.4Zm15.74-38.34 17.96 63.56h-16.04l-3.33-12.7h-17.66l-3.33 12.7h-14.73l17.96-63.56Zm57.2 33.29h.4v-33.3h14.53v63.57h-12.2L463.8 37.7h-.41v36.22h-14.63V10.35h14.93Zm42.67 5.05h11.1l-5.25-20.08h-.4Zm15.75-38.34 17.95 63.56h-16.04l-3.33-12.7H521l-3.33 12.7h-14.73l17.95-63.56ZM204.6 47.78c0 9.89-3.22 14.02-8.97 14.02s-8.98-4.13-8.98-14.02v-11.3c0-9.88 3.22-14.02 8.98-14.02s8.97 4.14 8.97 14.02Zm-8.97-38.54c-17.26 0-25.43 12.41-25.43 30.67v4.44c0 5.41.72 10.3 2.19 14.51h6.87l-1.56 2.82-2.08 3.73c4.18 6.08 10.8 9.61 20 9.61 17.26 0 25.43-12.4 25.43-30.67V39.9c0-18.26-8.17-30.67-25.42-30.67"/>
    <path class="cls-1" d="M132.56 10.32v63.56h36.19l7.28-13.12H148.5V10.32Zm182.41 79.49h13.37v4.1h-9.07v4.67h8.23v4.03h-8.23v4.88h9.2v4.13h-13.5Zm37.42-.33c3.93 0 7.22 1.85 9.24 4.87l-3.7 2.28a6.4 6.4 0 0 0-5.54-3.05c-3.97 0-6.89 3.29-6.89 7.12s2.92 7.12 6.89 7.12a6.4 6.4 0 0 0 5.54-3.06l3.7 2.29a10.9 10.9 0 0 1-9.24 4.87c-6.82 0-11.29-5.04-11.29-11.22s4.47-11.22 11.29-11.22m39.2 11.25c0-3.93-2.96-7.15-6.89-7.15-3.96 0-6.88 3.29-6.88 7.19a6.9 6.9 0 0 0 6.88 7.05c3.9 0 6.89-3.15 6.89-7.09m-18.18 0c0-6.21 4.8-11.25 11.3-11.25 6.34 0 11.28 4.94 11.28 11.22 0 6.32-4.97 11.22-11.29 11.22a11.1 11.1 0 0 1-11.29-11.19m36.51-10.92h4.04l11.08 14.55V89.81h4.34v21.8h-4.03l-11.1-14.57v14.58h-4.33Zm51.57 10.92c0-3.93-2.96-7.15-6.89-7.15-3.96 0-6.89 3.29-6.89 7.19a6.9 6.9 0 0 0 6.89 7.05c3.9 0 6.89-3.15 6.89-7.09m-18.18 0c0-6.21 4.8-11.25 11.29-11.25 6.35 0 11.29 4.94 11.29 11.22 0 6.32-4.97 11.22-11.29 11.22a11.1 11.1 0 0 1-11.29-11.19m60.63-10.92v21.8h-4.36V95.67l-5.3 15.96h-4.82L484.2 95.9v15.72h-4.37v-21.8h6.66l5.4 16.62 5.38-16.63Zm15.25 0h4.36v21.8h-4.36Zm29.59-.33c3.93 0 7.23 1.85 9.24 4.87l-3.7 2.28a6.4 6.4 0 0 0-5.54-3.05 6.97 6.97 0 0 0-6.89 7.12 6.97 6.97 0 0 0 6.9 7.12 6.4 6.4 0 0 0 5.54-3.06l3.7 2.29a10.9 10.9 0 0 1-9.25 4.87c-6.82 0-11.28-5.04-11.28-11.22s4.46-11.22 11.28-11.22m-311.33 54.47c3.76 0 6.45-2.48 6.45-6.82 0-4.3-2.69-6.78-6.45-6.78h-4.1v13.6Zm-8.43-17.7h8.43c6.82 0 10.85 4.77 10.85 10.88 0 6.18-4.13 10.92-10.85 10.92h-8.43Zm33.25 0h13.37v4.1h-9.07v4.67h8.23v4.03h-8.23v4.87h9.2v4.13h-13.5Zm25.53 0h4.63l6.25 17.4 6.28-17.4h4.5l-8.2 21.8H296Zm34.66 0h13.37v4.1h-9.07v4.67H335v4.03h-8.23v4.87h9.2v4.13h-13.5Zm27.78 0H355v17.6h8.77v4.2h-13.54Zm42.86 10.92c0-3.93-2.96-7.16-6.89-7.16-3.96 0-6.88 3.3-6.88 7.2a6.9 6.9 0 0 0 6.88 7.05c3.9 0 6.89-3.16 6.89-7.1m-18.18 0c0-6.2 4.8-11.25 11.3-11.25 6.35 0 11.28 4.94 11.28 11.22 0 6.32-4.97 11.22-11.29 11.22a11.1 11.1 0 0 1-11.29-11.18m44.38-.31c1.91 0 3.2-1.44 3.2-3.29 0-1.91-1.29-3.3-3.2-3.3h-3.5v6.6Zm-7.86-10.61h7.86c4.33 0 7.52 3.22 7.52 7.32a7.27 7.27 0 0 1-7.52 7.33h-3.5v7.15h-4.36Zm53.01 0v21.8h-4.37V132.1l-5.3 15.95h-4.82l-5.27-15.72v15.72h-4.37v-21.8h6.66l5.4 16.63 5.38-16.63Zm15.24 0h13.37v4.1H484v4.67h8.23v4.03H484v4.87h9.2v4.13h-13.5Zm27.78 0h4.03l11.08 14.54v-14.54h4.34v21.8h-4.03l-11.09-14.58v14.58h-4.33Zm39.43 4.06h-6.75v-4.06h17.87v4.06h-6.75v17.74h-4.37Zm0 0"/>
  </g>
</svg>